{"title":"Hitman 2007 Unrated 720p BluRay DTS x264 {GPR} Download","uid":10293795,"size":4690412927,"categoryP":"video","categoryS":"hd___movies","magnet":"?xt=urn:btih:ac0856412b45335a10808e14806617411b832f9c&amp;dn=Hitman+2007+Unrated+720p+BluRay+DTS+x264+%7BGPR%7D+Download&amp;tr=udp%3A%2F%2Ftracker.openbittorrent.com%3A80&amp;tr=udp%3A%2F%2Fopen.demonii.com%3A1337&amp;tr=udp%3A%2F%2Ftracker.coppersurfer.tk%3A6969&amp;tr=udp%3A%2F%2Fexodus.desync.com%3A6969","seeders":1,"leechers":1,"uploader":"GamePersia","files":2,"time":1401895528,"description":"Hitman 2007 Unrated 720p BluRay DTS x264 {GPR} Download\n &lt;a href=&quot;\nhttp://covers.box.sk/newsimg/dvdmov/max1275910885-front-cover.jpg&quot; rel=&quot;nofollow&quot; target=&quot;_NEW&quot;&gt;\nhttp://covers.box.sk/newsimg/dvdmov/max1275910885-front-cover.jpg&lt;/a&gt;\n\nDirector: Xavier Gens\nWriter: Skip Woods\nStars: Timothy Olyphant, Dougray Scott, Olga Kurylenko\nA gun-for-hire &quot;Hitman&quot; is a genetically-engineered, elite assassin known only as Agent 47 hired by a group known only as 'The Organization' is ensnared in a political conspiracy, which finds him pursued by both Interpol and the Russian military as he treks across Eastern Europe. But even 47 couldn't anticipate a &quot;random equation&quot; in his life exactitude: the unexpected stirrings of his conscience and the unfamiliar emotions aroused in him by a mysterious Russian woman.\n\nGeneral\n\nFormat                                   : Matroska\nFormat version                           : Version 4 / Version 2\nFile size                                : 4.37 GiB\nDuration                                 : 1h 34mn\nOverall bit rate                         : 6 636 Kbps\n\n\nVideo\nID                                       : 2\nFormat                                   : AVC\nFormat/Info                              : Advanced Video Codec\nFormat profile                           : &lt;a class=&quot;__cf_email__&quot; href=&quot;/cdn-cgi/l/email-protection&quot; data-cfemail=&quot;0840616f6048443c2639&quot;&gt;[email&amp;#160;protected]&lt;/a&gt;&lt;script cf-hash='f9e31' type=&quot;text/javascript&quot;&gt;\n/* &lt;![CDATA[ */!function(){try{var t=&quot;currentScript&quot;in document?document.currentScript:function(){for(var t=document.getElementsByTagName(&quot;script&quot;),e=t.length;e--;)if(t[e].getAttribute(&quot;cf-hash&quot;))return t[e]}();if(t&amp;&amp;t.previousSibling){var e,r,n,i,c=t.previousSibling,a=c.getAttribute(&quot;data-cfemail&quot;);if(a){for(e=&quot;&quot;,r=parseInt(a.substr(0,2),16),n=2;a.length-n;n+=2)i=parseInt(a.substr(n,2),16)^r,e+=String.fromCharCode(i);e=document.createTextNode(e),c.parentNode.replaceChild(e,c)}}}catch(u){}}();/* ]]&gt; */&lt;/script&gt;\nFormat settings, CABAC                   : Yes\nFormat settings, ReFrames                : 8 frames\nCodec ID                                 : V_MPEG4/ISO/AVC\nDuration                                 : 1h 34mn\nBit rate                                 : 5 879 Kbps\nWidth                                    : 1 280 pixels\nHeight                                   : 548 pixels\nDisplay aspect ratio                     : 2.35:1\nFrame rate mode                          : Constant\nFrame rate                               : 23.976 fps\nColor space                              : YUV\nChroma subsampling                       : 4:2:0\nBit depth                                : 8 bits\nScan type                                : Progressive\nBits/(Pixel*Frame)                       : 0.350\nStream size                              : 3.78 GiB (87%)\n\nAudio\nID                                       : 3\nFormat                                   : DTS\nFormat/Info                              : Digital Theater Systems\nMode                                     : 16\nFormat settings, Endianness              : Big\nCodec ID                                 : A_DTS\nDuration                                 : 1h 34mn\nBit rate mode                            : Constant\nBit rate                                 : 755 Kbps\nChannel(s)                               : 6 channels\nChannel positions                        : Front: L C R, Side: L R, LFE\nSampling rate                            : 48.0 KHz\nBit depth                                : 24 bits\nCompression mode                         : Lossy\nStream size                              : 509 MiB (11%)\nTitle                                    : GamePersia\nLanguage                                 : English\nDefault                                  : Yes\nForced                                   : No\n\nText\nID                                       : 1\nFormat                                   : UTF-8\nCodec ID                                 : S_TEXT/UTF8\nCodec ID/Info                            : UTF-8 Plain Text\nTitle                                    : GamePersia\nLanguage                                 : English\nDefault                                  : Yes\nForced                                   : No\n &lt;a href=&quot;\nhttp://i.imgur.com/PSmRICj.png&quot; rel=&quot;nofollow&quot; target=&quot;_NEW&quot;&gt;\nhttp://i.imgur.com/PSmRICj.png&lt;/a&gt; &lt;a href=&quot;\nhttp://i.imgur.com/r1Q7XXL.png&quot; rel=&quot;nofollow&quot; target=&quot;_NEW&quot;&gt;\nhttp://i.imgur.com/r1Q7XXL.png&lt;/a&gt; &lt;a href=&quot;\nhttp://i.imgur.com/GBWA5Zj.png&quot; rel=&quot;nofollow&quot; target=&quot;_NEW&quot;&gt;\nhttp://i.imgur.com/GBWA5Zj.png&lt;/a&gt; &lt;a href=&quot;\nhttp://i.imgur.com/1fje94Z.png&quot; rel=&quot;nofollow&quot; target=&quot;_NEW&quot;&gt;\nhttp://i.imgur.com/1fje94Z.png&lt;/a&gt;\n\nSeed Atleast 800 Mb To Aid The Files For Future Downloads Also\nIf You Like Our Work For You, Appreciate Us By Writing A Comment","torrent":{"xt":"urn:btih:ac0856412b45335a10808e14806617411b832f9c","amp;dn":"Hitman+2007+Unrated+720p+BluRay+DTS+x264+%7BGPR%7D+Download","amp;tr":["udp%3A%2F%2Ftracker.openbittorrent.com%3A80","udp%3A%2F%2Fopen.demonii.com%3A1337","udp%3A%2F%2Ftracker.coppersurfer.tk%3A6969","udp%3A%2F%2Fexodus.desync.com%3A6969"],"infoHash":"ac0856412b45335a10808e14806617411b832f9c","infoHashBuffer":{"type":"Buffer","data":[172,8,86,65,43,69,51,90,16,128,142,20,128,102,23,65,27,131,47,156]},"announce":[],"urlList":[]}}